<?xml version="1.0" encoding="UTF-8" standalone="no"?>
<!DOCTYPE svg PUBLIC "-//W3C//DTD SVG 1.1//EN"
 "http://www.w3.org/Graphics/SVG/1.1/DTD/svg11.dtd">
<!-- Generated by graphviz version 2.28.0 (20111103.1909)
 -->
<!-- Title: Multicore Pages: 1 -->
<svg width="318pt" height="139pt"
 viewBox="0.00 0.00 318.00 139.00" xmlns="http://www.w3.org/2000/svg" xmlns:xlink="http://www.w3.org/1999/xlink">
<g id="graph1" class="graph" transform="scale(1 1) rotate(0) translate(4 135)">
<title>Multicore</title>
<polygon fill="white" stroke="white" points="-4,5 -4,-135 315,-135 315,5 -4,5"/>
<!-- ChildFacade1 -->
<g id="node1" class="node"><title>ChildFacade1</title>
<polygon fill="none" stroke="black" points="309.5,-131 240.5,-131 240.5,-95 309.5,-95 309.5,-131"/>
<text text-anchor="middle" x="275" y="-110.3" font-family="Verdana" font-size="8.00">ChildFacade1</text>
</g>
<!-- ChildFacade2 -->
<g id="node2" class="node"><title>ChildFacade2</title>
<polygon fill="none" stroke="black" points="203.5,-36 134.5,-36 134.5,-0 203.5,-0 203.5,-36"/>
<text text-anchor="middle" x="169" y="-15.3" font-family="Verdana" font-size="8.00">ChildFacade2</text>
</g>
<!-- ChildFacade3 -->
<g id="node3" class="node"><title>ChildFacade3</title>
<polygon fill="none" stroke="black" points="309.5,-36 240.5,-36 240.5,-0 309.5,-0 309.5,-36"/>
<text text-anchor="middle" x="275" y="-15.3" font-family="Verdana" font-size="8.00">ChildFacade3</text>
</g>
<!-- ChildFacade2&#45;&gt;ChildFacade3 -->
<g id="edge16" class="edge"><title>ChildFacade2&#45;&gt;ChildFacade3</title>
<path fill="none" stroke="black" d="M203.766,-18C212.207,-18 221.381,-18 230.23,-18"/>
<polygon fill="black" stroke="black" points="230.404,-21.5001 240.404,-18 230.404,-14.5001 230.404,-21.5001"/>
</g>
<!-- AppFacade -->
<g id="node4" class="node"><title>AppFacade</title>
<polygon fill="none" stroke="black" points="49,-102 0.133737,-84 49,-66 97.8663,-84 49,-102"/>
<polyline fill="none" stroke="black" points="11.3941,-88.1478 11.3941,-79.8522 "/>
<polyline fill="none" stroke="black" points="37.7396,-70.1478 60.2604,-70.1478 "/>
<polyline fill="none" stroke="black" points="86.6059,-79.8522 86.6059,-88.1478 "/>
<polyline fill="none" stroke="black" points="60.2604,-97.8522 37.7396,-97.8522 "/>
<text text-anchor="middle" x="49" y="-81.3" font-family="Verdana" font-size="8.00">AppFacade</text>
</g>
<!-- AppFacade&#45;&gt;ChildFacade1 -->
<g id="edge12" class="edge"><title>AppFacade&#45;&gt;ChildFacade1</title>
<path fill="none" stroke="black" d="M67.864,-95.0975C84.3351,-104.632 109.822,-117.661 134,-123 165.648,-129.989 202.202,-127.016 230.021,-122.546"/>
<polygon fill="black" stroke="black" points="230.971,-125.934 240.227,-120.777 229.776,-119.036 230.971,-125.934"/>
</g>
<!-- AppFacade&#45;&gt;ChildFacade2 -->
<g id="edge14" class="edge"><title>AppFacade&#45;&gt;ChildFacade2</title>
<path fill="none" stroke="black" d="M69.2214,-73.2491C84.7387,-64.5699 107.127,-52.0473 126.668,-41.1179"/>
<polygon fill="black" stroke="black" points="128.392,-44.1642 135.411,-36.228 124.974,-38.0549 128.392,-44.1642"/>
</g>
<!-- Channels -->
<g id="node5" class="node"><title>Channels</title>
<ellipse fill="none" stroke="black" cx="169" cy="-84" rx="30.1263" ry="30.1263"/>
<text text-anchor="middle" x="169" y="-81.3" font-family="Verdana" font-size="8.00">Channels</text>
</g>
<!-- AppFacade&#45;&gt;Channels -->
<g id="edge2" class="edge"><title>AppFacade&#45;&gt;Channels</title>
<path fill="none" stroke="black" d="M81.6218,-77.9426C96.1543,-77.1513 113.534,-77.0381 128.882,-77.6029"/>
<polygon fill="black" stroke="black" points="128.964,-81.1109 139.122,-78.1022 129.305,-74.1192 128.964,-81.1109"/>
</g>
<!-- Channels&#45;&gt;ChildFacade1 -->
<g id="edge4" class="edge"><title>Channels&#45;&gt;ChildFacade1</title>
<path fill="none" stroke="blue" d="M198.144,-91.8478C211.138,-95.4711 226.669,-99.8018 240.284,-103.598"/>
</g>
<!-- Channels&#45;&gt;ChildFacade2 -->
<g id="edge6" class="edge"><title>Channels&#45;&gt;ChildFacade2</title>
<path fill="none" stroke="blue" d="M169,-53.6547C169,-47.7854 169,-41.9161 169,-36.0469"/>
</g>
<!-- Channels&#45;&gt;ChildFacade3 -->
<g id="edge8" class="edge"><title>Channels&#45;&gt;ChildFacade3</title>
<path fill="none" stroke="blue" d="M194.911,-68.1914C210.174,-58.5049 229.758,-46.0766 245.619,-36.0109"/>
</g>
<!-- Channels&#45;&gt;AppFacade -->
<g id="edge10" class="edge"><title>Channels&#45;&gt;AppFacade</title>
<path fill="none" stroke="blue" d="M139.122,-89.8978C121.707,-90.9781 99.508,-91.0313 81.6218,-90.0574"/>
</g>
</g>
</svg>
