<?xml version="1.0" encoding="UTF-8" standalone="no"?>
<!DOCTYPE svg PUBLIC "-//W3C//DTD SVG 1.1//EN"
 "http://www.w3.org/Graphics/SVG/1.1/DTD/svg11.dtd">
<!-- Generated by graphviz version 2.28.0 (20111103.1909)
 -->
<!-- Title: MVC Pages: 1 -->
<svg width="557pt" height="500pt"
 viewBox="0.00 0.00 556.65 500.26" xmlns="http://www.w3.org/2000/svg" xmlns:xlink="http://www.w3.org/1999/xlink">
<g id="graph1" class="graph" transform="scale(1 1) rotate(0) translate(4 496.262)">
<title>MVC</title>
<polygon fill="white" stroke="white" points="-4,5 -4,-496.262 553.646,-496.262 553.646,5 -4,5"/>
<!-- facade -->
<g id="node1" class="node"><title>facade</title>
<polygon fill="none" stroke="black" points="307.809,-231.541 273.569,-213.541 307.809,-195.541 342.05,-213.541 307.809,-231.541"/>
<polyline fill="none" stroke="black" points="284.19,-219.125 284.19,-207.957 "/>
<polyline fill="none" stroke="black" points="297.188,-201.125 318.431,-201.125 "/>
<polyline fill="none" stroke="black" points="331.428,-207.957 331.428,-219.125 "/>
<polyline fill="none" stroke="black" points="318.431,-225.957 297.188,-225.957 "/>
<text text-anchor="middle" x="307.809" y="-210.841" font-family="Verdana" font-size="8.00">facade</text>
</g>
<!-- model -->
<g id="node3" class="node"><title>model</title>
<ellipse fill="lightskyblue" stroke="lightskyblue" cx="352.8" cy="-278.721" rx="36" ry="36"/>
<text text-anchor="middle" x="352.8" y="-276.021" font-family="Verdana" font-size="8.00">model</text>
</g>
<!-- facade&#45;&gt;model -->
<g id="edge6" class="edge"><title>facade&#45;&gt;model</title>
<path fill="none" stroke="black" d="M317.131,-227.046C321.507,-233.385 326.909,-241.212 332.174,-248.839"/>
</g>
<!-- logic -->
<g id="node7" class="node"><title>logic</title>
<ellipse fill="#9aff9a" stroke="#9aff9a" cx="234.236" cy="-383.76" rx="36" ry="36"/>
<text text-anchor="middle" x="234.236" y="-381.06" font-family="Verdana" font-size="8.00">logic</text>
</g>
<!-- facade&#45;&gt;logic -->
<g id="edge4" class="edge"><title>facade&#45;&gt;logic</title>
<path fill="none" stroke="black" d="M301.409,-228.349C289.697,-255.446 264.554,-313.616 248.57,-350.597"/>
</g>
<!-- view -->
<g id="node10" class="node"><title>view</title>
<ellipse fill="#ff6a6a" stroke="#ff6a6a" cx="234.236" cy="-173.683" rx="36" ry="36"/>
<text text-anchor="middle" x="234.236" y="-170.983" font-family="Verdana" font-size="8.00">view</text>
</g>
<!-- facade&#45;&gt;view -->
<g id="edge2" class="edge"><title>facade&#45;&gt;view</title>
<path fill="none" stroke="black" d="M290.745,-204.296C283.359,-200.295 274.466,-195.478 265.945,-190.861"/>
</g>
<!-- events -->
<g id="node13" class="node"><title>events</title>
<ellipse fill="peachpuff" stroke="peachpuff" cx="442.781" cy="-148.361" rx="36" ry="36"/>
<text text-anchor="middle" x="442.781" y="-145.661" font-family="Verdana" font-size="8.00">events</text>
</g>
<!-- facade&#45;&gt;events -->
<g id="edge8" class="edge"><title>facade&#45;&gt;events</title>
<path fill="none" stroke="black" d="M325.733,-204.886C347.245,-194.497 383.733,-176.876 410.262,-164.065"/>
</g>
<!-- states -->
<g id="node16" class="node"><title>states</title>
<ellipse fill="tan" stroke="tan" cx="506.597" cy="-240.814" rx="36" ry="36"/>
<text text-anchor="middle" x="506.597" y="-238.114" font-family="Verdana" font-size="8.00">states</text>
</g>
<!-- facade&#45;&gt;states -->
<g id="edge10" class="edge"><title>facade&#45;&gt;states</title>
<path fill="none" stroke="black" d="M335.033,-217.276C370.23,-222.105 431.622,-230.527 470.63,-235.879"/>
</g>
<!-- service1 -->
<g id="node2" class="node"><title>service1</title>
<polygon fill="none" stroke="black" points="506.597,-334.629 466.433,-316.629 506.597,-298.629 546.761,-316.629 506.597,-334.629"/>
<text text-anchor="middle" x="506.597" y="-313.929" font-family="Verdana" font-size="8.00">service1</text>
</g>
<!-- proxy1 -->
<g id="node4" class="node"><title>proxy1</title>
<ellipse fill="lightskyblue" stroke="lightskyblue" cx="422.928" cy="-315.527" rx="18" ry="18"/>
<text text-anchor="middle" x="422.928" y="-312.827" font-family="Verdana" font-size="8.00">proxy1</text>
</g>
<!-- model&#45;&gt;proxy1 -->
<g id="edge32" class="edge"><title>model&#45;&gt;proxy1</title>
<path fill="none" stroke="black" d="M384.991,-295.616C392.624,-299.623 400.44,-303.725 406.979,-307.157"/>
</g>
<!-- proxy2 -->
<g id="node5" class="node"><title>proxy2</title>
<ellipse fill="lightskyblue" stroke="lightskyblue" cx="380.885" cy="-352.775" rx="18" ry="18"/>
<text text-anchor="middle" x="380.885" y="-350.075" font-family="Verdana" font-size="8.00">proxy2</text>
</g>
<!-- model&#45;&gt;proxy2 -->
<g id="edge34" class="edge"><title>model&#45;&gt;proxy2</title>
<path fill="none" stroke="black" d="M365.692,-312.714C368.749,-320.774 371.879,-329.028 374.498,-335.933"/>
</g>
<!-- proxy3 -->
<g id="node6" class="node"><title>proxy3</title>
<ellipse fill="lightskyblue" stroke="lightskyblue" cx="343.253" cy="-357.344" rx="18" ry="18"/>
<text text-anchor="middle" x="343.253" y="-354.644" font-family="Verdana" font-size="8.00">proxy3</text>
</g>
<!-- model&#45;&gt;proxy3 -->
<g id="edge36" class="edge"><title>model&#45;&gt;proxy3</title>
<path fill="none" stroke="black" d="M348.418,-314.811C347.379,-323.369 346.315,-332.132 345.425,-339.463"/>
</g>
<!-- proxy1&#45;&gt;service1 -->
<g id="edge44" class="edge"><title>proxy1&#45;&gt;service1</title>
<path fill="none" stroke="black" d="M441.083,-315.766C448.869,-315.869 458.287,-315.993 467.524,-316.114"/>
</g>
<!-- vo1 -->
<g id="node40" class="node"><title>vo1</title>
<polygon fill="lavender" stroke="lavender" points="507.364,-401.76 435.364,-401.76 435.364,-365.76 507.364,-365.76 507.364,-401.76"/>
<text text-anchor="middle" x="471.364" y="-381.06" font-family="Verdana" font-size="8.00">vo1</text>
</g>
<!-- proxy1&#45;&gt;vo1 -->
<g id="edge38" class="edge"><title>proxy1&#45;&gt;vo1</title>
<path fill="none" stroke="black" d="M433.438,-330.333C440.783,-340.68 450.637,-354.562 458.46,-365.581"/>
</g>
<!-- vo2 -->
<g id="node44" class="node"><title>vo2</title>
<polygon fill="lavender" stroke="lavender" points="444.969,-444.828 372.969,-444.828 372.969,-408.828 444.969,-408.828 444.969,-444.828"/>
<text text-anchor="middle" x="408.969" y="-424.128" font-family="Verdana" font-size="8.00">vo2</text>
</g>
<!-- proxy2&#45;&gt;vo2 -->
<g id="edge42" class="edge"><title>proxy2&#45;&gt;vo2</title>
<path fill="none" stroke="black" d="M387.398,-369.95C391.806,-381.572 397.618,-396.898 402.099,-408.712"/>
</g>
<!-- vo3 -->
<g id="node42" class="node"><title>vo3</title>
<polygon fill="lavender" stroke="lavender" points="369.707,-453.966 297.707,-453.966 297.707,-417.966 369.707,-417.966 369.707,-453.966"/>
<text text-anchor="middle" x="333.707" y="-433.266" font-family="Verdana" font-size="8.00">vo3</text>
</g>
<!-- proxy3&#45;&gt;vo3 -->
<g id="edge40" class="edge"><title>proxy3&#45;&gt;vo3</title>
<path fill="none" stroke="black" d="M341.039,-375.579C339.497,-388.281 337.449,-405.15 335.909,-417.83"/>
</g>
<!-- controller1 -->
<g id="node8" class="node"><title>controller1</title>
<ellipse fill="#9aff9a" stroke="#9aff9a" cx="217.828" cy="-474.262" rx="18" ry="18"/>
<text text-anchor="middle" x="217.828" y="-471.562" font-family="Verdana" font-size="8.00">controller1</text>
</g>
<!-- logic&#45;&gt;controller1 -->
<g id="edge24" class="edge"><title>logic&#45;&gt;controller1</title>
<path fill="none" stroke="black" d="M227.798,-419.269C225.5,-431.946 223.007,-445.695 221.089,-456.274"/>
</g>
<!-- controller2 -->
<g id="node9" class="node"><title>controller2</title>
<ellipse fill="#9aff9a" stroke="#9aff9a" cx="142.416" cy="-389.14" rx="18" ry="18"/>
<text text-anchor="middle" x="142.416" y="-386.44" font-family="Verdana" font-size="8.00">controller2</text>
</g>
<!-- logic&#45;&gt;controller2 -->
<g id="edge26" class="edge"><title>logic&#45;&gt;controller2</title>
<path fill="none" stroke="black" d="M198.21,-385.871C185.348,-386.624 171.399,-387.441 160.666,-388.07"/>
</g>
<!-- mediator1 -->
<g id="node11" class="node"><title>mediator1</title>
<ellipse fill="#ff6a6a" stroke="#ff6a6a" cx="115.2" cy="-278.721" rx="18" ry="18"/>
<text text-anchor="middle" x="115.2" y="-276.021" font-family="Verdana" font-size="8.00">mediator1</text>
</g>
<!-- view&#45;&gt;mediator1 -->
<g id="edge12" class="edge"><title>view&#45;&gt;mediator1</title>
<path fill="none" stroke="black" d="M207.225,-197.518C182.805,-219.066 147.854,-249.907 128.822,-266.701"/>
</g>
<!-- mediator2 -->
<g id="node12" class="node"><title>mediator2</title>
<ellipse fill="#ff6a6a" stroke="#ff6a6a" cx="174.954" cy="-121.163" rx="18" ry="18"/>
<text text-anchor="middle" x="174.954" y="-118.463" font-family="Verdana" font-size="8.00">mediator2</text>
</g>
<!-- view&#45;&gt;mediator2 -->
<g id="edge14" class="edge"><title>view&#45;&gt;mediator2</title>
<path fill="none" stroke="black" d="M207.024,-149.575C200.571,-143.858 193.964,-138.005 188.436,-133.107"/>
</g>
<!-- window -->
<g id="node20" class="node"><title>window</title>
<polygon fill="lavender" stroke="lavender" points="360.16,-60.8537 288.16,-60.8537 288.16,-24.8537 360.16,-24.8537 360.16,-60.8537"/>
<text text-anchor="middle" x="324.16" y="-40.1537" font-family="Verdana" font-size="8.00">window</text>
</g>
<!-- view&#45;&gt;window -->
<g id="edge16" class="edge"><title>view&#45;&gt;window</title>
<path fill="none" stroke="black" d="M254.641,-143.996C272.156,-118.513 296.843,-82.5974 311.599,-61.1288"/>
</g>
<!-- gui1 -->
<g id="node17" class="node"><title>gui1</title>
<polygon fill="lavender" stroke="lavender" points="72,-296.721 0,-296.721 0,-260.721 72,-260.721 72,-296.721"/>
<text text-anchor="middle" x="36" y="-276.021" font-family="Verdana" font-size="8.00">gui1</text>
</g>
<!-- mediator1&#45;&gt;gui1 -->
<g id="edge18" class="edge"><title>mediator1&#45;&gt;gui1</title>
<path fill="none" stroke="black" d="M96.8309,-278.721C89.4281,-278.721 80.6199,-278.721 72.0368,-278.721"/>
</g>
<!-- gui2 -->
<g id="node18" class="node"><title>gui2</title>
<polygon fill="lavender" stroke="lavender" points="108.288,-149.497 36.2875,-149.497 36.2875,-113.497 108.288,-113.497 108.288,-149.497"/>
<text text-anchor="middle" x="72.2875" y="-128.797" font-family="Verdana" font-size="8.00">gui2</text>
</g>
<!-- mediator2&#45;&gt;gui2 -->
<g id="edge20" class="edge"><title>mediator2&#45;&gt;gui2</title>
<path fill="none" stroke="black" d="M156.599,-123.011C143.218,-124.358 124.653,-126.226 108.348,-127.867"/>
</g>
<!-- gui3 -->
<g id="node19" class="node"><title>gui3</title>
<polygon fill="lavender" stroke="lavender" points="208.837,-36 136.837,-36 136.837,-0 208.837,-0 208.837,-36"/>
<text text-anchor="middle" x="172.837" y="-15.3" font-family="Verdana" font-size="8.00">gui3</text>
</g>
<!-- mediator2&#45;&gt;gui3 -->
<g id="edge22" class="edge"><title>mediator2&#45;&gt;gui3</title>
<path fill="none" stroke="black" d="M174.575,-102.72C174.19,-83.9421 173.596,-55.0037 173.212,-36.2839"/>
</g>
<!-- signals1 -->
<g id="node14" class="node"><title>signals1</title>
<ellipse fill="peachpuff" stroke="peachpuff" cx="437.054" cy="-56.5614" rx="18" ry="18"/>
<text text-anchor="middle" x="437.054" y="-53.8614" font-family="Verdana" font-size="8.00">signals1</text>
</g>
<!-- events&#45;&gt;signals1 -->
<g id="edge28" class="edge"><title>events&#45;&gt;signals1</title>
<path fill="none" stroke="black" d="M440.534,-112.343C439.732,-99.4836 438.862,-85.5383 438.193,-74.8078"/>
</g>
<!-- signals2 -->
<g id="node15" class="node"><title>signals2</title>
<ellipse fill="peachpuff" stroke="peachpuff" cx="530.646" cy="-121.163" rx="18" ry="18"/>
<text text-anchor="middle" x="530.646" y="-118.463" font-family="Verdana" font-size="8.00">signals2</text>
</g>
<!-- events&#45;&gt;signals2 -->
<g id="edge30" class="edge"><title>events&#45;&gt;signals2</title>
<path fill="none" stroke="black" d="M477.256,-137.69C489.564,-133.88 502.911,-129.748 513.182,-126.569"/>
</g>
</g>
</svg>
