<?xml version="1.0" encoding="UTF-8" standalone="no"?>
<!DOCTYPE svg PUBLIC "-//W3C//DTD SVG 1.1//EN"
 "http://www.w3.org/Graphics/SVG/1.1/DTD/svg11.dtd">
<!-- Generated by graphviz version 2.28.0 (20111103.1909)
 -->
<!-- Title: MVC_UML Pages: 1 -->
<svg width="160pt" height="116pt"
 viewBox="0.00 0.00 160.00 116.00" xmlns="http://www.w3.org/2000/svg" xmlns:xlink="http://www.w3.org/1999/xlink">
<g id="graph1" class="graph" transform="scale(1 1) rotate(0) translate(4 112)">
<title>MVC_UML</title>
<polygon fill="white" stroke="white" points="-4,5 -4,-112 157,-112 157,5 -4,5"/>
<!-- Facade -->
<g id="node1" class="node"><title>Facade</title>
<polygon fill="none" stroke="black" points="104,-108 50,-108 50,-72 104,-72 104,-108"/>
<text text-anchor="middle" x="77" y="-87.3" font-family="Verdana" font-size="8.00">Facade</text>
</g>
<!-- ParentFacade -->
<g id="node3" class="node"><title>ParentFacade</title>
<polygon fill="none" stroke="black" points="70,-36 0,-36 0,-0 70,-0 70,-36"/>
<text text-anchor="middle" x="35" y="-15.3" font-family="Verdana" font-size="8.00">ParentFacade</text>
</g>
<!-- Facade&#45;&gt;ParentFacade -->
<g id="edge2" class="edge"><title>Facade&#45;&gt;ParentFacade</title>
<path fill="none" stroke="black" d="M61.447,-63.0783C56.0458,-54.0763 50.1282,-44.2136 45.2626,-36.1043"/>
<polygon fill="black" stroke="black" points="58.4717,-64.9224 66.618,-71.6966 64.4742,-61.3209 58.4717,-64.9224"/>
</g>
<!-- ChildFacade -->
<g id="node5" class="node"><title>ChildFacade</title>
<polygon fill="none" stroke="black" points="152,-36 88,-36 88,-0 152,-0 152,-36"/>
<text text-anchor="middle" x="120" y="-15.3" font-family="Verdana" font-size="8.00">ChildFacade</text>
</g>
<!-- Facade&#45;&gt;ChildFacade -->
<g id="edge4" class="edge"><title>Facade&#45;&gt;ChildFacade</title>
<path fill="none" stroke="black" d="M92.9233,-63.0783C98.4531,-54.0763 104.512,-44.2136 109.493,-36.1043"/>
<polygon fill="black" stroke="black" points="89.8812,-61.3439 87.6292,-71.6966 95.8457,-65.0078 89.8812,-61.3439"/>
</g>
</g>
</svg>
