<?xml version="1.0" encoding="UTF-8" standalone="no"?>
<!DOCTYPE svg PUBLIC "-//W3C//DTD SVG 1.1//EN"
 "http://www.w3.org/Graphics/SVG/1.1/DTD/svg11.dtd">
<!-- Generated by graphviz version 2.28.0 (20111103.1909)
 -->
<!-- Title: MVC_UML Pages: 1 -->
<svg width="364pt" height="332pt"
 viewBox="0.00 0.00 364.00 332.00" xmlns="http://www.w3.org/2000/svg" xmlns:xlink="http://www.w3.org/1999/xlink">
<g id="graph1" class="graph" transform="scale(1 1) rotate(0) translate(4 328)">
<title>MVC_UML</title>
<polygon fill="white" stroke="white" points="-4,5 -4,-328 361,-328 361,5 -4,5"/>
<!-- Mediator -->
<g id="node1" class="node"><title>Mediator</title>
<polygon fill="none" stroke="black" points="197,-36 143,-36 143,-0 197,-0 197,-36"/>
<text text-anchor="middle" x="170" y="-15.3" font-family="Verdana" font-size="8.00">Mediator</text>
</g>
<!-- Proxy -->
<g id="node2" class="node"><title>Proxy</title>
<polygon fill="none" stroke="black" points="63,-108 9,-108 9,-72 63,-72 63,-108"/>
<text text-anchor="middle" x="36" y="-87.3" font-family="Verdana" font-size="8.00">Proxy</text>
</g>
<!-- EditableProxy -->
<g id="node3" class="node"><title>EditableProxy</title>
<polygon fill="none" stroke="black" points="70.25,-36 -0.25,-36 -0.25,-0 70.25,-0 70.25,-36"/>
<text text-anchor="middle" x="35" y="-15.3" font-family="Verdana" font-size="8.00">EditableProxy</text>
</g>
<!-- Proxy&#45;&gt;EditableProxy -->
<g id="edge30" class="edge"><title>Proxy&#45;&gt;EditableProxy</title>
<path fill="none" stroke="black" d="M35.6095,-61.6651C35.4865,-53.0537 35.3542,-43.7913 35.2443,-36.1043"/>
<polygon fill="black" stroke="black" points="32.1102,-61.7477 35.7528,-71.6966 39.1095,-61.6476 32.1102,-61.7477"/>
</g>
<!-- MVCActor -->
<g id="node4" class="node"><title>MVCActor</title>
<polygon fill="none" stroke="black" points="196.25,-108 141.75,-108 141.75,-72 196.25,-72 196.25,-108"/>
<text text-anchor="middle" x="169" y="-87.3" font-family="Verdana" font-size="8.00">MVCActor</text>
</g>
<!-- MVCActor&#45;&gt;Mediator -->
<g id="edge24" class="edge"><title>MVCActor&#45;&gt;Mediator</title>
<path fill="none" stroke="black" d="M169.39,-61.6651C169.514,-53.0537 169.646,-43.7913 169.756,-36.1043"/>
<polygon fill="black" stroke="black" points="165.89,-61.6476 169.247,-71.6966 172.89,-61.7477 165.89,-61.6476"/>
</g>
<!-- MVCNotifier -->
<g id="node5" class="node"><title>MVCNotifier</title>
<polygon fill="none" stroke="black" points="70,-180 6,-180 6,-144 70,-144 70,-180"/>
<text text-anchor="middle" x="38" y="-159.3" font-family="Verdana" font-size="8.00">MVCNotifier</text>
</g>
<!-- MVCNotifier&#45;&gt;Proxy -->
<g id="edge28" class="edge"><title>MVCNotifier&#45;&gt;Proxy</title>
<path fill="none" stroke="black" d="M37.219,-133.665C36.973,-125.054 36.7083,-115.791 36.4887,-108.104"/>
<polygon fill="black" stroke="black" points="33.7214,-133.801 37.5056,-143.697 40.7185,-133.601 33.7214,-133.801"/>
</g>
<!-- MVCNotifier&#45;&gt;MVCActor -->
<g id="edge22" class="edge"><title>MVCNotifier&#45;&gt;MVCActor</title>
<path fill="none" stroke="black" d="M79.1269,-139.024C99.53,-128.121 123.613,-115.253 141.711,-105.582"/>
<polygon fill="black" stroke="black" points="77.2165,-136.076 70.0462,-143.876 80.5155,-142.25 77.2165,-136.076"/>
</g>
<!-- Signals -->
<g id="node6" class="node"><title>Signals</title>
<polygon fill="none" stroke="black" points="65,-252 11,-252 11,-216 65,-216 65,-252"/>
<text text-anchor="middle" x="38" y="-231.3" font-family="Verdana" font-size="8.00">Signals</text>
</g>
<!-- Facade -->
<g id="node7" class="node"><title>Facade</title>
<polygon fill="none" stroke="black" points="320,-252 285.054,-234 320,-216 354.946,-234 320,-252"/>
<polyline fill="none" stroke="black" points="295.722,-239.495 295.722,-228.505 "/>
<polyline fill="none" stroke="black" points="309.332,-221.495 330.668,-221.495 "/>
<polyline fill="none" stroke="black" points="344.278,-228.505 344.278,-239.495 "/>
<polyline fill="none" stroke="black" points="330.668,-246.505 309.332,-246.505 "/>
<text text-anchor="middle" x="320" y="-231.3" font-family="Verdana" font-size="8.00">Facade</text>
</g>
<!-- IMVCCore -->
<g id="node8" class="node"><title>IMVCCore</title>
<ellipse fill="#dbdbdb" stroke="#dbdbdb" cx="312" cy="-162" rx="31.1517" ry="18"/>
<text text-anchor="middle" x="312" y="-159.3" font-family="Verdana" font-size="8.00">IMVCCore</text>
</g>
<!-- IMVCCoreActor -->
<g id="node11" class="node"><title>IMVCCoreActor</title>
<ellipse fill="#dbdbdb" stroke="#dbdbdb" cx="312" cy="-90" rx="43.5142" ry="18"/>
<text text-anchor="middle" x="312" y="-87.3" font-family="Verdana" font-size="8.00">IMVCCoreActor</text>
</g>
<!-- IMVCCore&#45;&gt;IMVCCoreActor -->
<g id="edge10" class="edge"><title>IMVCCore&#45;&gt;IMVCCoreActor</title>
<path fill="none" stroke="black" stroke-dasharray="5,2" d="M312,-133.665C312,-125.054 312,-115.791 312,-108.104"/>
<polygon fill="black" stroke="black" points="308.5,-133.697 312,-143.697 315.5,-133.697 308.5,-133.697"/>
</g>
<!-- IMVCNotifier -->
<g id="node9" class="node"><title>IMVCNotifier</title>
<ellipse fill="#dbdbdb" stroke="#dbdbdb" cx="175" cy="-234" rx="38.0064" ry="18"/>
<text text-anchor="middle" x="175" y="-231.3" font-family="Verdana" font-size="8.00">IMVCNotifier</text>
</g>
<!-- IMVCNotifier&#45;&gt;MVCNotifier -->
<g id="edge26" class="edge"><title>IMVCNotifier&#45;&gt;MVCNotifier</title>
<path fill="none" stroke="black" stroke-dasharray="5,2" d="M141.019,-215.638C119.344,-204.563 91.4257,-190.298 70.1211,-179.412"/>
<polygon fill="black" stroke="black" points="139.693,-218.89 150.19,-220.324 142.878,-212.657 139.693,-218.89"/>
</g>
<!-- IMVCNotifier&#45;&gt;IMVCCore -->
<g id="edge6" class="edge"><title>IMVCNotifier&#45;&gt;IMVCCore</title>
<path fill="none" stroke="black" stroke-dasharray="5,2" d="M208.948,-215.655C233.961,-202.874 267.303,-185.838 289.196,-174.652"/>
<polygon fill="black" stroke="black" points="207.122,-212.657 199.81,-220.324 210.307,-218.89 207.122,-212.657"/>
</g>
<!-- IMVCActor -->
<g id="node10" class="node"><title>IMVCActor</title>
<ellipse fill="#dbdbdb" stroke="#dbdbdb" cx="175" cy="-162" rx="32.3505" ry="18"/>
<text text-anchor="middle" x="175" y="-159.3" font-family="Verdana" font-size="8.00">IMVCActor</text>
</g>
<!-- IMVCNotifier&#45;&gt;IMVCActor -->
<g id="edge8" class="edge"><title>IMVCNotifier&#45;&gt;IMVCActor</title>
<path fill="none" stroke="black" stroke-dasharray="5,2" d="M175,-205.665C175,-197.054 175,-187.791 175,-180.104"/>
<polygon fill="black" stroke="black" points="171.5,-205.697 175,-215.697 178.5,-205.697 171.5,-205.697"/>
</g>
<!-- IMVCActor&#45;&gt;MVCActor -->
<g id="edge20" class="edge"><title>IMVCActor&#45;&gt;MVCActor</title>
<path fill="none" stroke="black" stroke-dasharray="5,2" d="M172.657,-133.665C171.919,-125.054 171.125,-115.791 170.466,-108.104"/>
<polygon fill="black" stroke="black" points="169.176,-134.032 173.517,-143.697 176.15,-133.434 169.176,-134.032"/>
</g>
<!-- IMVCActor&#45;&gt;IMVCCoreActor -->
<g id="edge12" class="edge"><title>IMVCActor&#45;&gt;IMVCCoreActor</title>
<path fill="none" stroke="black" stroke-dasharray="5,2" d="M207.298,-144.497C231.25,-132.259 263.487,-115.787 285.836,-104.369"/>
<polygon fill="black" stroke="black" points="205.553,-141.459 198.24,-149.125 208.738,-147.692 205.553,-141.459"/>
</g>
<!-- IDisposable -->
<g id="node12" class="node"><title>IDisposable</title>
<ellipse fill="#dbdbdb" stroke="#dbdbdb" cx="180" cy="-306" rx="35.6022" ry="18"/>
<text text-anchor="middle" x="180" y="-303.3" font-family="Verdana" font-size="8.00">IDisposable</text>
</g>
<!-- IDisposable&#45;&gt;Signals -->
<g id="edge16" class="edge"><title>IDisposable&#45;&gt;Signals</title>
<path fill="none" stroke="black" stroke-dasharray="5,2" d="M146.579,-288.525C121.878,-276.348 88.6528,-259.97 65.4869,-248.55"/>
<polygon fill="black" stroke="black" points="145.072,-291.684 155.589,-292.967 148.167,-285.406 145.072,-291.684"/>
</g>
<!-- IDisposable&#45;&gt;Facade -->
<g id="edge14" class="edge"><title>IDisposable&#45;&gt;Facade</title>
<path fill="none" stroke="black" stroke-dasharray="5,2" d="M213.48,-288.26C241.655,-274.173 280.793,-254.604 302.938,-243.531"/>
<polygon fill="black" stroke="black" points="211.765,-285.204 204.386,-292.807 214.896,-291.465 211.765,-285.204"/>
</g>
<!-- IDisposable&#45;&gt;IMVCNotifier -->
<g id="edge2" class="edge"><title>IDisposable&#45;&gt;IMVCNotifier</title>
<path fill="none" stroke="black" stroke-dasharray="5,2" d="M178.048,-277.665C177.432,-269.054 176.771,-259.791 176.222,-252.104"/>
<polygon fill="black" stroke="black" points="174.56,-277.971 178.764,-287.697 181.543,-277.473 174.56,-277.971"/>
</g>
<!-- IDisablable -->
<g id="node13" class="node"><title>IDisablable</title>
<ellipse fill="#dbdbdb" stroke="#dbdbdb" cx="38" cy="-306" rx="34.4008" ry="18"/>
<text text-anchor="middle" x="38" y="-303.3" font-family="Verdana" font-size="8.00">IDisablable</text>
</g>
<!-- IDisablable&#45;&gt;Signals -->
<g id="edge18" class="edge"><title>IDisablable&#45;&gt;Signals</title>
<path fill="none" stroke="black" stroke-dasharray="5,2" d="M38,-277.665C38,-269.054 38,-259.791 38,-252.104"/>
<polygon fill="black" stroke="black" points="34.5001,-277.697 38,-287.697 41.5001,-277.697 34.5001,-277.697"/>
</g>
<!-- IDisablable&#45;&gt;IMVCNotifier -->
<g id="edge4" class="edge"><title>IDisablable&#45;&gt;IMVCNotifier</title>
<path fill="none" stroke="black" stroke-dasharray="5,2" d="M71.063,-288.107C95.3627,-275.691 127.873,-259.08 150.021,-247.763"/>
<polygon fill="black" stroke="black" points="69.176,-285.14 61.8636,-292.807 72.361,-291.374 69.176,-285.14"/>
</g>
</g>
</svg>
